<svg width="100" height="100" viewBox="0 0 24 24" fill="none" xmlns="http://www.w3.org/2000/svg">
  <defs>
    <linearGradient id="folderBack" x1="12" y1="4" x2="12" y2="18" gradientUnits="userSpaceOnUse">
      <stop offset="0%" stop-color="#1E40AF"/>
      <stop offset="100%" stop-color="#1E3A8A"/>
    </linearGradient>
    
    <linearGradient id="folderBody" x1="12" y1="7" x2="12" y2="20" gradientUnits="userSpaceOnUse">
      <stop offset="0%" stop-color="#60A5FA"/>
      <stop offset="100%" stop-color="#2563EB"/>
    </linearGradient>

    <linearGradient id="waveHighlight" x1="2" y1="12" x2="22" y2="12" gradientUnits="userSpaceOnUse">
      <stop offset="0%" stop-color="white" stop-opacity="0.3"/>
      <stop offset="50%" stop-color="white" stop-opacity="0.6"/>
      <stop offset="100%" stop-color="white" stop-opacity="0.3"/>
    </linearGradient>
  </defs>

  <path d="M4 6C4 4.89543 4.89543 4 6 4H10L12 6H18C19.1046 6 20 6.89543 20 8V16C20 17.1046 19.1046 18 18 18H6C4.89543 18 4 17.1046 4 16V6Z" fill="url(#folderBack)"/>

  <path d="M2 9C2 7.89543 2.89543 7 4 7H20C21.1046 7 22 7.89543 22 9V18C22 19.1046 21.1046 20 20 20H4C2.89543 20 2 19.1046 2 18V9Z" fill="url(#folderBody)" fill-opacity="0.95"/>
  
  <path d="M2 13C4 11.5 6 11.5 8 13C10 14.5 12 14.5 14 13C16 11.5 18 11.5 20 13C21 13.75 22 13.5 22 13V18C22 19.1046 21.1046 20 20 20H4C2.89543 20 2 19.1046 2 18V13Z" fill="url(#waveHighlight)" fill-opacity="0.4"/>
  
  <path d="M4 7.5H20" stroke="white" stroke-opacity="0.3" stroke-width="0.5" stroke-linecap="round"/>
</svg>
